<?xml version="1.0" standalone="no"?>
<!DOCTYPE svg PUBLIC "-//W3C//DTD SVG 20010904//EN"
 "http://www.w3.org/TR/2001/REC-SVG-20010904/DTD/svg10.dtd">
<svg version="1.0" xmlns="http://www.w3.org/2000/svg"
 width="2560.000000pt" height="2560.000000pt" viewBox="0 0 2560.000000 2560.000000"
 preserveAspectRatio="xMidYMid meet">
<metadata>
Created by potrace 1.14, written by Peter Selinger 2001-2017
</metadata>
<g transform="translate(0.000000,2560.000000) scale(0.100000,-0.100000)"
fill="#000000" stroke="none">
<path d="M3203 16172 c-6 -4 -29 -61 -51 -127 -94 -280 -222 -617 -314 -825
-11 -25 -26 -58 -33 -75 -7 -16 -27 -60 -44 -98 -17 -37 -31 -69 -31 -72 0 -2
-15 -37 -34 -77 -63 -137 -114 -250 -177 -393 -50 -115 -73 -140 -132 -149
-48 -7 -323 -8 -1309 -6 -490 0 -710 -3 -740 -10 -48 -13 -94 -58 -107 -104
-14 -49 -14 -3685 0 -3727 16 -47 37 -69 89 -92 44 -20 66 -20 1405 -20 748 0
1382 3 1409 7 64 9 103 37 116 84 16 59 14 5673 -2 5684 -16 10 -30 10 -45 0z"/>
<path d="M3370 16165 c-10 -12 -12 -469 -11 -2283 1 -1247 2 -2522 4 -2834 2
-558 2 -567 23 -595 42 -57 -10 -55 1491 -55 l1381 -1 49 24 c30 15 55 37 68
59 20 35 20 48 20 1890 l-1 1855 -21 41 c-15 28 -36 48 -65 63 -43 21 -43 21
-1048 21 -553 0 -1018 2 -1034 5 -62 12 -74 31 -197 321 -66 153 -128 297
-138 319 -105 227 -309 739 -431 1080 -18 50 -38 93 -44 97 -17 12 -32 9 -46
-7z"/>
<path d="M18187 14375 c-1 -1 -42 -5 -92 -8 -191 -13 -339 -72 -445 -177 -61
-60 -113 -144 -126 -203 -25 -109 -11 -245 35 -328 88 -160 241 -245 606 -338
196 -50 270 -84 307 -141 54 -84 20 -183 -79 -231 -52 -25 -151 -34 -218 -19
-99 22 -185 113 -207 221 -8 41 -17 59 -28 60 -16 1 -88 -2 -155 -6 -22 -1
-97 -6 -168 -10 -70 -4 -135 -8 -145 -10 -9 -2 -20 -4 -24 -4 -3 -1 -4 -16 -2
-33 32 -220 156 -409 317 -483 138 -63 248 -80 507 -80 180 1 298 21 409 72
214 97 346 304 340 533 -3 128 -42 226 -125 313 -109 115 -265 181 -619 262
-217 50 -265 78 -265 156 0 51 46 104 103 120 62 16 164 7 219 -19 54 -27 99
-87 117 -157 7 -27 16 -43 24 -40 11 4 65 7 297 21 103 6 178 11 192 13 3 1 0
24 -7 51 -7 28 -14 54 -14 58 -3 26 -38 113 -58 146 -107 168 -289 249 -591
259 -56 2 -103 3 -105 2z"/>
<path d="M7230 14340 c-9 -6 -7 -1132 3 -1165 3 -11 10 -42 16 -70 31 -138 75
-221 169 -318 92 -96 182 -146 308 -172 105 -22 141 -26 329 -30 188 -5 279 6
399 46 212 71 368 260 424 514 2 11 6 286 9 610 l4 590 -268 0 -268 0 -1 -552
c-1 -303 -5 -568 -9 -590 -19 -106 -105 -192 -208 -210 -208 -35 -355 61 -373
245 -3 31 -7 293 -7 582 l-2 525 -258 0 c-142 0 -262 -2 -267 -5z"/>
<path d="M9218 14345 c0 0 -2 -390 -3 -867 l-2 -868 254 0 253 0 0 476 0 476
56 -83 c126 -187 179 -264 187 -274 4 -5 57 -82 117 -170 144 -213 207 -305
253 -370 l39 -55 252 0 253 0 0 865 c0 476 -3 866 -6 866 -3 1 -116 2 -251 3
l-245 1 -5 -480 c-5 -434 -6 -477 -20 -453 -13 24 -82 126 -235 348 -68 99
-181 265 -290 425 -48 72 -94 137 -102 145 -11 13 -54 15 -258 15 -135 1 -246
1 -247 0z"/>
<path d="M11225 14341 c-3 -2 -5 -393 -5 -868 l0 -863 270 0 269 0 -2 868 -2
867 -263 0 c-145 1 -265 -1 -267 -4z"/>
<path d="M11940 14342 c0 -4 231 -617 285 -757 13 -33 46 -123 75 -200 28 -77
56 -149 60 -160 5 -11 23 -58 40 -105 18 -47 38 -98 45 -115 7 -16 43 -112 80
-212 l69 -183 292 0 291 0 63 168 c159 429 212 570 225 602 8 19 44 116 80
215 36 99 72 196 80 215 18 47 27 73 31 85 1 6 39 107 83 225 45 118 81 217
81 220 0 3 -122 6 -271 5 l-271 0 -30 -95 c-16 -52 -47 -151 -68 -220 -21 -69
-68 -222 -105 -340 -37 -118 -93 -300 -125 -405 l-58 -190 -46 150 c-26 83
-51 161 -56 175 -5 14 -68 214 -140 445 -72 231 -135 434 -140 450 l-10 30
-280 0 c-154 0 -280 -1 -280 -3z"/>
<path d="M13965 14340 c-2 -3 -3 -393 -3 -868 l0 -862 734 0 734 0 0 195 c0
179 -1 195 -17 196 -10 0 -219 1 -465 1 l-448 1 0 171 0 171 417 0 418 0 2
177 2 177 -377 0 c-207 0 -396 0 -419 0 l-43 1 0 138 0 137 450 0 c247 -1 450
1 451 5 7 41 2 353 -6 358 -12 8 -1425 9 -1430 2z"/>
<path d="M15695 14341 c-3 -2 -5 -393 -5 -868 l0 -863 270 0 270 0 0 350 c0
326 1 350 18 351 81 5 142 -16 187 -65 27 -30 102 -160 236 -411 23 -44 60
-111 80 -150 l38 -70 306 -3 306 -2 -92 177 c-193 374 -192 372 -273 466 -37
43 -67 66 -120 91 l-70 34 34 7 c19 4 68 22 109 41 104 48 195 142 235 245 55
140 41 339 -32 453 -79 124 -196 188 -387 212 -59 7 -1103 12 -1110 5z m901
-360 c46 -12 88 -42 105 -72 17 -32 22 -105 10 -142 -29 -87 -105 -116 -328
-124 l-153 -5 0 179 0 179 163 -2 c89 -1 181 -7 203 -13z"/>
<path d="M19279 14320 c-1 -33 -1 -1681 0 -1697 1 -10 62 -13 269 -13 l268 0
-1 868 0 867 -267 0 -268 1 -1 -26z"/>
<path d="M20172 13478 l0 -868 433 0 c444 0 529 5 663 41 126 34 217 89 309
189 77 83 152 229 167 324 4 21 8 41 10 45 2 3 7 47 12 96 20 243 -5 458 -72
619 -100 238 -284 376 -549 412 -27 4 -258 7 -512 8 l-461 2 0 -868z m693 471
c275 -8 369 -131 366 -484 -1 -179 -8 -230 -47 -311 -54 -112 -121 -142 -331
-149 l-143 -4 0 474 0 474 33 3 c17 2 34 3 37 1 3 -1 42 -3 85 -4z"/>
<path d="M22400 14340 c-4 -3 -26 -52 -48 -110 -41 -109 -497 -1319 -537
-1425 -13 -33 -34 -90 -48 -128 l-26 -67 276 2 277 3 27 95 c16 52 34 115 41
140 l14 45 298 0 c163 0 301 -2 306 -5 6 -4 90 -260 90 -276 0 -2 127 -4 281
-4 263 0 281 1 277 18 -3 9 -74 199 -158 422 -84 223 -162 432 -175 465 -82
221 -270 720 -290 770 l-23 60 -286 0 c-158 0 -291 -2 -296 -5z m470 -1062 c0
-5 -85 -8 -189 -8 l-190 0 9 28 c17 56 122 400 152 497 l30 100 94 -305 c52
-168 94 -308 94 -312z"/>
<path d="M23783 14336 c-3 -5 -6 -394 -6 -865 l0 -856 469 0 c494 0 538 3 683
52 132 44 274 170 348 309 61 116 71 153 93 319 9 70 6 338 -4 385 -3 14 -11
50 -17 80 -68 330 -278 531 -599 576 -81 11 -960 12 -967 0z m807 -400 c122
-32 174 -80 216 -199 22 -64 29 -131 28 -287 -1 -219 -33 -324 -117 -387 -56
-42 -120 -55 -276 -57 l-126 -1 -1 465 c0 256 1 468 3 473 7 13 217 8 273 -7z"/>
<path d="M18165 12154 c-206 -35 -349 -106 -475 -235 -104 -107 -172 -238
-207 -402 -28 -127 -24 -402 6 -522 63 -245 195 -420 396 -523 70 -36 204 -76
290 -87 81 -11 320 -13 370 -4 22 4 57 10 79 13 69 11 184 55 256 98 261 156
383 410 383 793 0 276 -77 489 -231 644 -124 125 -274 194 -487 227 -80 12
-304 11 -380 -2z m356 -428 c150 -75 204 -201 202 -469 -2 -239 -60 -380 -182
-441 -147 -75 -340 -45 -436 66 -76 88 -105 195 -106 383 0 190 39 323 119
403 69 69 139 93 263 88 69 -3 96 -8 140 -30z"/>
<path d="M7229 12133 c-1 -5 -2 -396 -3 -870 l-2 -861 466 2 c256 2 476 6 490
10 14 3 51 11 82 16 193 35 337 135 443 305 86 137 123 308 120 543 -2 77 -12
210 -20 242 -30 132 -53 197 -93 270 -108 192 -269 300 -501 334 -95 14 -980
22 -982 9z m805 -402 c189 -44 253 -174 249 -504 -2 -137 -15 -212 -50 -282
-56 -114 -127 -143 -357 -149 l-114 -2 0 476 0 476 112 -2 c61 -1 133 -7 160
-13z"/>
<path d="M9255 11271 l0 -866 733 -1 732 -1 1 26 c0 36 0 299 0 336 l-1 30
-462 0 -463 0 0 170 0 170 405 2 c223 1 411 2 418 2 9 1 12 43 12 176 l0 175
-419 0 -418 0 1 138 1 137 400 2 c220 1 423 2 450 2 l50 1 0 183 0 182 -721 1
-720 2 1 -867z"/>
<path d="M11259 12126 c-1 -6 -2 -395 -3 -864 -1 -753 0 -853 14 -856 8 -3
318 -4 688 -4 l672 0 1 97 c1 144 1 262 0 299 l-1 32 -418 0 -419 0 0 653 0
652 -266 1 c-192 1 -267 -2 -268 -10z"/>
<path d="M15267 12133 c-4 -3 -7 -394 -7 -868 l1 -862 253 0 254 0 1 441 c0
242 0 456 0 475 1 32 5 28 75 -75 92 -134 255 -374 316 -463 25 -37 93 -137
152 -222 l107 -156 254 0 254 -1 -1 867 -1 866 -252 2 -253 3 -2 -478 -3 -479
-123 181 c-68 100 -186 273 -263 386 -77 113 -168 246 -202 297 l-62 92 -246
0 c-135 0 -249 -2 -252 -6z"/>
<path d="M19808 12133 c-3 -4 -4 -395 -4 -868 l1 -860 270 -1 270 -2 0 352 0
351 56 -2 c105 -3 158 -47 239 -203 18 -36 42 -81 53 -100 11 -19 38 -69 60
-110 22 -41 62 -115 89 -164 26 -49 48 -91 48 -93 0 -3 6 -10 13 -17 10 -11
79 -14 310 -14 163 0 297 4 297 8 0 4 -27 58 -59 121 -33 63 -93 179 -134 258
-75 145 -166 275 -220 313 -17 12 -54 31 -84 43 l-55 23 69 21 c225 69 354
250 347 487 -3 126 -47 235 -126 315 -71 71 -138 105 -252 124 -21 4 -48 9
-60 12 -35 9 -1124 15 -1128 6z m937 -373 c61 -31 86 -71 87 -138 0 -97 -48
-150 -157 -173 -77 -16 -324 -20 -326 -5 -3 27 -5 332 -2 338 2 4 81 6 176 5
161 -3 176 -5 222 -27z"/>
<path d="M21790 11924 l0 -214 274 0 274 0 0 -627 c0 -346 1 -640 1 -654 l1
-26 268 1 267 1 0 650 1 650 275 3 275 2 -1 213 -1 212 -817 1 -817 1 0 -213z"/>
<path d="M23910 11270 l0 -867 735 0 735 0 0 196 -1 196 -462 0 -462 0 -3 171
-2 171 407 1 c225 0 413 1 419 1 8 1 12 52 12 176 l0 175 -419 0 -419 0 0 139
0 139 445 0 c245 0 448 2 451 5 3 2 6 86 7 185 l2 179 -722 0 -723 0 0 -867z"/>
<path d="M2316 10323 c-1 -2 -293 -3 -647 -3 -655 -1 -703 -3 -743 -38 -33
-30 -46 -70 -122 -375 -101 -400 -106 -427 -85 -465 14 -27 65 -37 117 -23 21
5 50 12 64 15 14 2 155 34 313 71 158 36 295 68 305 70 34 8 409 94 522 120
63 14 124 28 135 31 41 8 68 15 500 114 242 56 448 103 458 105 10 3 28 7 39
11 11 3 59 6 107 6 66 0 127 -10 266 -42 99 -24 196 -46 215 -50 19 -4 179
-40 355 -80 176 -39 329 -74 340 -76 11 -2 70 -15 130 -28 61 -14 124 -27 142
-31 18 -3 43 -9 57 -15 15 -5 26 -8 26 -5 0 2 15 -1 33 -6 17 -5 44 -11 58
-14 50 -9 432 -96 438 -99 3 -2 22 -7 41 -10 19 -3 121 -25 225 -50 105 -25
199 -43 210 -41 11 2 23 4 26 4 4 1 13 15 21 32 18 35 13 68 -32 219 -25 84
-38 134 -45 165 -4 17 -95 337 -110 390 -9 28 -19 55 -23 61 -26 40 17 39
-1695 39 -901 0 -1640 -1 -1641 -2z"/>
</g>
</svg>
